<svg viewBox="0 0 34 34" fill="currentColor" xmlns="http://www.w3.org/2000/svg">
<path d="M10.2232 4.30469C10.3214 4.15194 10.5179 4 10.7143 4C10.9107 4 11.0584 4.15275 11.1566 4.30469L12.3831 6.4375C12.5796 6.79338 12.6778 7.14844 12.6778 7.55469V7.65625C12.6778 8.82463 11.7939 9.6875 10.7135 9.6875C9.58364 9.6875 8.74921 8.82381 8.74921 7.65625V7.55469C8.74921 7.14844 8.84743 6.79256 8.99514 6.4375L10.2232 4.30469ZM16.5089 4.30469C16.6071 4.15194 16.8036 4 17 4C17.1964 4 17.3441 4.15275 17.4424 4.30469L18.6696 6.4375C18.8661 6.79338 18.9643 7.14844 18.9643 7.55469V7.65625C18.9643 8.82463 18.0804 9.6875 17 9.6875C15.8701 9.6875 15.0357 8.82381 15.0357 7.65625V7.55469C15.0357 7.14844 15.1339 6.79256 15.2816 6.4375L16.5089 4.30469ZM21.5674 6.4375L22.7946 4.30469C22.8929 4.15194 23.0893 4 23.2857 4C23.4821 4 23.6299 4.15275 23.7281 4.30469L24.9554 6.4375C25.1518 6.79338 25.25 7.14844 25.25 7.55469V7.65625C25.25 8.82463 24.3661 9.6875 23.2857 9.6875C22.1559 9.6875 21.3214 8.82381 21.3214 7.65625V7.55469C21.3214 7.14844 21.4196 6.79256 21.5674 6.4375ZM11.8929 12.5312V15.375H15.8214V12.5312C15.8214 11.8707 16.3125 11.3125 17 11.3125C17.6388 11.3125 18.1786 11.8715 18.1786 12.5312V15.375H22.1071V12.5312C22.1071 11.8707 22.5982 11.3125 23.2857 11.3125C23.9245 11.3125 24.4643 11.8715 24.4643 12.5312V15.375H24.8571C26.5763 15.375 28 16.8481 28 18.625V28.375C28 29.2891 27.263 30 26.4286 30H7.57143C6.6875 30 6 29.2891 6 28.375V18.625C6 16.8472 7.375 15.375 9.14286 15.375H9.53571V12.5312C9.53571 11.8707 10.0268 11.3125 10.7143 11.3125C11.3531 11.3125 11.8929 11.8715 11.8929 12.5312ZM9.09336 17.8125C8.7005 17.8125 8.30764 18.2188 8.30764 18.625V21.7231C8.60307 21.6215 8.84821 21.4688 9.09336 21.3168C9.24107 21.2153 9.38879 21.0625 9.53571 20.9106C9.87986 20.6059 10.2232 20.25 10.7143 20.25C11.1566 20.25 11.5 20.6059 11.8441 20.9106C11.9911 21.0625 12.138 21.2153 12.2857 21.3168C12.7281 21.6215 13.3174 21.875 13.8571 21.875C14.3969 21.875 14.9375 21.6207 15.3799 21.316C15.5268 21.2144 15.6745 21.0625 15.8214 20.9097C16.1656 20.6051 16.5089 20.25 16.9513 20.25C17.4424 20.25 17.7857 20.6059 18.1299 20.9106C18.2768 21.0625 18.4245 21.2153 18.5714 21.3168C19.0138 21.6215 19.6031 21.875 20.1429 21.875C20.6826 21.875 21.2232 21.6207 21.6656 21.316C21.8125 21.2144 21.9602 21.0625 22.1071 20.9097C22.4513 20.6051 22.7946 20.25 23.237 20.25C23.7281 20.25 24.0714 20.6059 24.4156 20.9106C24.5625 21.0625 24.7102 21.2153 24.8571 21.3168C25.1031 21.4688 25.3482 21.6215 25.6429 21.7231V18.625C25.6429 18.2188 25.25 17.8125 24.8571 17.8125H9.09336ZM25.6429 24.2621C24.7589 24.1094 23.9732 23.6528 23.2857 23.1449C22.3523 23.8559 21.2719 24.3125 20.1429 24.3125C18.9643 24.3125 17.8839 23.8551 17 23.1441C16.0666 23.8551 14.9862 24.3125 13.8571 24.3125C12.6786 24.3125 11.5982 23.8551 10.7143 23.1441C9.97729 23.6519 9.19157 24.1094 8.35714 24.2613V27.5625H25.6429V24.2621Z" fill="currentColor"/>
</svg>
