<svg viewBox="0 0 36 34" fill="currentColor" xmlns="http://www.w3.org/2000/svg">
<path d="M28.9746 10.5974C28.9746 10.5974 28.9492 10.539 28.9407 10.514C28.9153 10.4557 28.8899 10.3973 28.856 10.3473L28.7968 10.264C28.7637 10.2168 28.7238 10.1746 28.6782 10.1389C28.6538 10.1124 28.6252 10.0898 28.5935 10.0722C28.5766 10.0639 28.5681 10.0472 28.5427 10.0306C28.5089 10.0056 28.4665 9.98889 28.4242 9.97221C28.4072 9.96388 28.3903 9.94721 28.3649 9.93887L24.8507 8.52181V5.22673C24.8507 5.1267 24.8337 5.06002 24.8083 5.01C24.5966 3.94304 23.5974 3.21784 22.6659 2.80106C21.5227 2.29258 20.0154 2 18.4149 2C16.8145 2 15.3072 2.29175 14.164 2.80022C13.224 3.217 12.2248 3.94221 12.0216 5.01C11.9962 5.06002 11.9792 5.1267 11.9792 5.22673V8.17838L7.64357 9.9372C7.64357 9.9372 7.62664 9.9372 7.61817 9.94554C7.24557 10.1039 7 10.4707 7 10.8625V26.9803C7 27.3887 7.25404 27.7555 7.6351 27.9139L17.602 31.9417H17.6274C17.6697 31.9583 17.7121 31.9667 17.7544 31.975C17.7968 31.9833 17.8306 32 17.873 32H18.127C18.1694 32 18.2032 31.9833 18.2456 31.975C18.2879 31.9667 18.3303 31.9583 18.3726 31.9417H18.398L28.3649 27.9147C28.7544 27.7563 29 27.3896 29 26.9811V10.8716C29 10.7799 28.9831 10.6882 28.9577 10.5966L28.9746 10.5974ZM15.0447 4.6349C15.8576 4.26813 17.0516 4.01806 18.4319 4.01806C19.8122 4.01806 21.0062 4.26813 21.8191 4.6349C22.7167 5.03501 22.8014 5.39344 22.8014 5.42678C22.8014 5.46013 22.7252 5.81856 21.8191 6.21867C21.0062 6.58544 19.8122 6.83551 18.4319 6.83551C17.0516 6.83551 15.8576 6.58544 15.0447 6.21867C14.147 5.81856 14.0624 5.46013 14.0624 5.42678C14.0624 5.39344 14.1386 5.03501 15.0447 4.6349ZM14.0624 8.00333C14.0624 8.00333 14.1386 8.03668 14.1724 8.05335C15.3156 8.56182 16.8229 8.85357 18.4234 8.85357C20.0239 8.85357 21.5312 8.56182 22.6744 8.05335C22.7082 8.03668 22.7421 8.02001 22.7844 8.00333V8.45346C22.7844 8.45346 22.7082 8.84523 21.8022 9.24535C20.9892 9.61211 19.7952 9.86218 18.4149 9.86218C17.0346 9.86218 15.8406 9.61211 15.0277 9.24535C14.1301 8.84523 14.0454 8.4868 14.0454 8.45346V8.00333H14.0624ZM12.6905 10.0872C13.1055 10.5207 13.6474 10.8458 14.1724 11.08C15.3156 11.5885 16.8229 11.8802 18.4234 11.8802C20.0239 11.8802 21.5312 11.5885 22.6744 11.08C23.0978 10.8883 23.5381 10.6382 23.9022 10.3215L25.2741 10.8716L18.0085 13.8058L10.7429 10.8716L12.6905 10.0797V10.0881V10.0872ZM9.07467 12.3804L16.9669 15.5746V29.5068L9.07467 26.3143V12.3804ZM26.9423 26.3134L19.05 29.5068V15.5754C19.05 15.5754 23.5635 13.7491 26.3156 12.6405L26.9423 12.3904V26.3226V26.3134Z" fill="currentColor"/>
</svg>
