<svg viewBox="0 0 30 29" fill="currentColor" xmlns="http://www.w3.org/2000/svg">
<path d="M16.1754 4.73699L18.884 10.1877L24.844 11.0479C25.3442 11.1299 25.7609 11.4578 25.9276 11.9495C26.0943 12.4006 25.969 12.933 25.5942 13.2609L21.2599 17.4822L22.3015 23.4653C22.3848 23.9571 22.1768 24.4488 21.76 24.7354C21.3433 25.0632 20.8011 25.0632 20.343 24.8586L15.0085 22.0307L9.63199 24.8593C9.21523 25.0639 8.67378 25.0639 8.25702 24.736C8.0534 24.5967 7.8943 24.4033 7.79831 24.1784C7.70231 23.9535 7.67338 23.7064 7.7149 23.466L8.71512 17.4828L4.38082 13.2615C4.04742 12.9337 3.92272 12.4013 4.04742 11.9502C4.21412 11.4584 4.63088 11.1306 5.13099 11.0486L11.1323 10.1883L13.7996 4.73764C14.0083 4.28719 14.4664 4 15.0085 4C15.5086 4 15.9667 4.28653 16.1754 4.73699Z" fill="currentColor"/>
</svg>
